<svg width="784" height="160" viewBox="0 0 784 160" fill="none" xmlns="http://www.w3.org/2000/svg">
<path d="M54.6047 114.888V82.1905H93.5589V114.888H105.849V45.1116H93.5589V71.5049H54.6047V45.1116H42.3149V114.888H54.6047Z" fill="#1F1E2C"/>
<path d="M203.365 73.1078H164.849V55.7972H210.716V45.1116H152.559V114.888H213.35V104.203H164.849V83.7934H203.365V73.1078Z" fill="#1F1E2C"/>
<path d="M327.564 114.888V45.1116H315.494L290.585 86.251H290.366L265.457 45.1116H252.838V114.888H264.579V67.4444H265.128L288.939 106.554H290.915L314.726 67.4444H315.275V114.888H327.564Z" fill="#1F1E2C"/>
<path d="M432.491 53.1258C426.785 48.7447 414.605 42.9745 399.463 42.9745C386.295 42.9745 370.604 47.8898 370.604 64.4525C370.604 81.3357 388.599 82.6179 404.4 83.6865C416.91 84.6482 425.139 86.4647 425.139 95.2269C425.139 103.134 416.69 106.66 406.046 106.66C390.026 106.66 379.931 99.1806 374.115 94.0515L366.653 102.386C374.664 109.439 386.953 117.025 405.827 117.025C422.945 117.025 437.429 110.507 437.429 93.6241C437.429 74.1763 417.239 72.8941 404.4 72.0392C393.537 71.2912 382.893 70.9707 382.893 63.3839C382.893 56.0109 390.465 53.3395 399.024 53.3395C412.191 53.3395 421.079 57.9343 425.03 61.4605L432.491 53.1258Z" fill="#1F1E2C"/>
<path d="M467.97 55.7972H496.171V114.888H508.461V55.7972H536.552V45.1116H467.97V55.7972Z" fill="#1F1E2C"/>
<path d="M624.947 73.1078H586.432V55.7972H632.299V45.1116H574.142V114.888H634.932V104.203H586.432V83.7934H624.947V73.1078Z" fill="#1F1E2C"/>
<path d="M686.71 114.888V88.0676H712.168L727.53 114.888H741.685L724.567 86.4647C734.004 83.0454 740.368 75.886 740.368 66.4827C740.368 61.1399 738.284 56.2246 734.663 52.4846C730.054 47.6761 723.47 45.1116 713.924 45.1116H674.421V114.888H686.71ZM713.924 55.7972C717.764 55.7972 721.714 56.1177 725.116 59.5371C726.981 61.4605 728.079 63.8113 728.079 66.4827C728.079 72.4666 722.592 77.382 716.118 77.382H686.71V55.7972H713.924Z" fill="#1F1E2C"/>
</svg>
