<svg width="300" height="220" viewBox="0 0 300 220" fill="none" xmlns="http://www.w3.org/2000/svg">
<g clip-path="url(#clip0_75_2508)">
<path d="M75.1855 172.774C76.8716 167.363 77.8716 106.179 92.0283 73.0837C105.043 71.9464 133.106 71.5178 135.874 73.0837C139.334 75.0411 147.737 113.198 149.207 116.127C150.676 119.055 152.164 186.063 152.474 187.314C152.784 188.565 150.525 189.126 149.687 189.175C148.849 189.223 147.869 190.203 146.843 190.563C145.817 190.924 140.753 192.826 138.923 192.599C132.974 191.859 119.887 193.6 115.173 193.014C111.855 192.602 106.065 194.321 99.5886 195.026C96.7144 195.339 73.8742 191.591 72.7746 191.227C71.6749 190.862 73.4993 178.185 75.1855 172.774Z" fill="#FAD1B4"/>
<path d="M86.6851 46.1565C87.4904 48.1774 88.7181 56.4585 92.2919 70.1336L136.326 69.1763L137.693 46.1565C130.354 40.1395 133.5 28.8803 136.326 23.6382L128.577 23C118.407 38.3281 99.5245 30.187 95.6651 23L89.1466 24.4131C91.2617 28.8256 92.2919 43.7862 86.6851 46.1565Z" fill="#F5B382"/>
<path d="M91.8501 69.7482L136.409 68.9843V73.3428L91.8501 74.3313V69.7482Z" fill="#1F1E2C"/>
<path d="M159.602 79.2595C160.551 79.2422 161.691 76.86 165.461 69.6973C178.353 68.212 204.957 65.4197 208.95 68.9844C212.942 72.5491 213.762 77.8961 216.792 79.1437C211.98 80.7478 203.068 80.0705 199.503 81.639C195.047 83.5995 183.997 81.639 172.946 81.639C164.314 81.639 164.723 80.8458 159.602 79.2595C159.474 79.2619 159.349 79.2213 159.222 79.1437C159.352 79.1828 159.479 79.2214 159.602 79.2595Z" fill="#FAD1B4"/>
<path d="M159.579 46.1565C160.385 48.1774 161.612 56.4585 165.186 70.1336L209.22 69.1763L210.588 46.1565C203.249 40.1395 206.394 28.8803 209.22 23.6382L201.471 23C193.8 38.3281 172.419 30.187 168.559 23L162.041 24.4131C164.156 28.8256 165.186 43.7862 159.579 46.1565Z" fill="#F5B382"/>
<path d="M180.911 92.4953C180.775 92.3594 180.555 92.3594 180.419 92.4953L178.206 94.7094C178.07 94.8453 178.07 95.0655 178.206 95.2014C178.341 95.3372 178.562 95.3372 178.698 95.2013L180.665 93.2332L182.633 95.2009C182.769 95.3368 182.99 95.3368 183.125 95.2009C183.261 95.065 183.261 94.8448 183.125 94.7089L180.911 92.4953ZM159.482 108.622C162.66 110.782 168.055 110.638 172.618 108.078C177.212 105.501 181.014 100.458 181.013 92.7412L180.317 92.7413C180.318 100.196 176.661 105.012 172.278 107.471C167.864 109.947 162.765 110.013 159.873 108.047L159.482 108.622Z" fill="#1F1E2C"/>
</g>
<defs>
<clipPath id="clip0_75_2508">
<rect width="152.792" height="175" fill="white" transform="translate(64 23)"/>
</clipPath>
</defs>
</svg>
