<svg width="300" height="220" viewBox="0 0 300 220" fill="none" xmlns="http://www.w3.org/2000/svg">
<rect x="86.9751" y="24" width="99.9797" height="12.4975" fill="#B28B67"/>
<path d="M73.1209 169.804C70.2135 169.804 72.5006 145.923 85.475 28.9994H189.258C201.104 124.139 199.132 169.804 199.132 169.804H144.237C144.237 169.804 142.066 155.227 136.584 118.431C128.42 151.195 128.42 169.804 128.42 169.804H73.1209Z" fill="#FAD1B4"/>
<rect x="219.032" y="78.0791" width="37.4644" height="124.813" rx="18.7322" transform="rotate(41.8986 219.032 78.0791)" fill="#1F1E2C"/>
<circle cx="166.193" cy="149.963" r="2.21806" transform="rotate(41.8986 166.193 149.963)" fill="white"/>
<circle cx="159.529" cy="157.393" r="2.21806" transform="rotate(41.8986 159.529 157.393)" fill="white"/>
<circle cx="152.862" cy="164.822" r="2.21806" transform="rotate(41.8986 152.862 164.822)" fill="white"/>
<circle cx="173.787" cy="156.777" r="2.21806" transform="rotate(41.8986 173.787 156.777)" fill="white"/>
<circle cx="167.122" cy="164.206" r="2.21806" transform="rotate(41.8986 167.122 164.206)" fill="white"/>
<circle cx="160.457" cy="171.635" r="2.21806" transform="rotate(41.8986 160.457 171.635)" fill="white"/>
<circle cx="181.382" cy="163.591" r="2.21806" transform="rotate(41.8986 181.382 163.591)" fill="white"/>
<circle cx="174.717" cy="171.02" r="2.21806" transform="rotate(41.8986 174.717 171.02)" fill="white"/>
<circle cx="168.051" cy="178.45" r="2.21806" transform="rotate(41.8986 168.051 178.45)" fill="white"/>
<circle cx="215.016" cy="95.5468" r="2.21806" transform="rotate(41.8986 215.016 95.5468)" fill="white"/>
<circle cx="208.351" cy="102.976" r="2.21806" transform="rotate(41.8986 208.351 102.976)" fill="white"/>
<circle cx="201.685" cy="110.406" r="2.21806" transform="rotate(41.8986 201.685 110.406)" fill="white"/>
<circle cx="222.61" cy="102.361" r="2.21806" transform="rotate(41.8986 222.61 102.361)" fill="white"/>
<circle cx="215.945" cy="109.791" r="2.21806" transform="rotate(41.8986 215.945 109.791)" fill="white"/>
<circle cx="209.279" cy="117.219" r="2.21806" transform="rotate(41.8986 209.279 117.219)" fill="white"/>
<circle cx="230.204" cy="109.175" r="2.21806" transform="rotate(41.8986 230.204 109.175)" fill="white"/>
<circle cx="223.539" cy="116.604" r="2.21806" transform="rotate(41.8986 223.539 116.604)" fill="white"/>
<circle cx="216.874" cy="124.034" r="2.21806" transform="rotate(41.8986 216.874 124.034)" fill="white"/>
<rect x="168.031" y="142.543" width="39.6811" height="27.5617" rx="4.44934" transform="rotate(-48.1014 168.031 142.543)" fill="#F8FFEF"/>
<path fill-rule="evenodd" clip-rule="evenodd" d="M184.105 130.487C184.05 130.58 183.949 130.748 183.881 130.861C183.308 131.813 182.934 133.037 182.871 134.17C182.846 134.623 182.896 135.423 182.953 135.474C182.993 135.51 183.07 135.484 183.402 135.321C183.428 135.308 183.44 135.088 183.429 134.833C183.37 133.464 183.746 132.068 184.485 130.911C184.776 130.456 185.783 129.321 185.957 129.252C186.01 129.231 186.204 129.104 186.388 128.97C186.699 128.743 186.984 128.585 187.45 128.383C187.55 128.339 187.638 128.297 187.645 128.29C187.678 128.253 188.533 127.996 188.862 127.923C189.58 127.764 191.228 127.757 191.363 127.913C191.399 127.955 191.391 128.095 191.339 128.321C191.296 128.51 191.27 128.674 191.281 128.684C191.299 128.701 191.676 128.587 192.48 128.321C192.57 128.291 192.823 128.21 193.042 128.142C193.261 128.073 193.439 128.008 193.439 127.997C193.437 127.963 191.802 126.499 191.767 126.501C191.75 126.502 191.698 126.675 191.654 126.885C191.609 127.095 191.559 127.282 191.542 127.3C191.526 127.318 191.293 127.308 191.025 127.278C190.538 127.222 189.683 127.233 189.211 127.302C188.802 127.361 187.93 127.591 187.574 127.734C186.857 128.023 186.169 128.408 185.881 128.681C185.778 128.779 185.612 128.905 185.512 128.961C185.369 129.04 185.208 129.198 184.768 129.691C184.458 130.036 184.16 130.395 184.105 130.487ZM183.142 136.845C183.075 137.305 182.999 137.783 182.972 137.908C182.945 138.034 182.938 138.15 182.957 138.167C182.976 138.184 183.12 138.148 183.279 138.086C183.677 137.931 183.685 137.933 183.856 138.228C184.01 138.493 184.069 138.578 184.374 138.988C185.088 139.946 186.06 140.716 187.232 141.254C187.761 141.497 188.472 141.702 189.154 141.808C190.52 142.022 192.069 141.804 193.34 141.22C193.685 141.062 194.298 140.714 194.543 140.538C194.679 140.44 194.661 140.35 194.465 140.151L194.338 140.022L193.979 140.246C193.372 140.626 193.001 140.8 192.344 141.014C190.578 141.589 188.522 141.388 186.92 140.482C186.363 140.167 186.237 140.075 185.685 139.581C185.201 139.149 185.048 138.99 184.837 138.7C184.516 138.258 184.252 137.828 184.261 137.762C184.265 137.734 184.445 137.643 184.661 137.559C184.877 137.475 185.049 137.39 185.042 137.371C185.029 137.33 183.872 136.383 183.534 136.136C183.405 136.042 183.291 135.975 183.282 135.987C183.272 135.998 183.209 136.384 183.142 136.845ZM194.142 128.712C194.104 128.789 194.074 128.872 194.075 128.897C194.076 128.922 194.237 129.056 194.433 129.196C195.105 129.674 195.801 130.496 196.269 131.36C196.894 132.518 197.158 133.737 197.07 135.067C197.038 135.557 196.983 135.864 196.825 136.424C196.664 136.998 196.277 137.878 196.172 137.909C196.133 137.92 196.046 137.852 195.884 137.683C195.757 137.55 195.636 137.446 195.616 137.452C195.574 137.465 195.529 137.616 195.272 138.62C195.166 139.03 195.064 139.425 195.044 139.497L195.009 139.629L195.165 139.605C195.252 139.592 195.333 139.57 195.346 139.556C195.36 139.543 195.5 139.5 195.658 139.461C196.375 139.284 197.203 139.035 197.21 138.994C197.215 138.97 197.086 138.831 196.925 138.687C196.763 138.543 196.625 138.401 196.617 138.371C196.609 138.34 196.656 138.221 196.72 138.105C196.874 137.831 197.062 137.43 197.175 137.136C197.289 136.838 197.533 135.933 197.562 135.701C197.622 135.209 197.654 134.768 197.64 134.606C197.626 134.428 197.618 134.438 197.618 134.438L197.615 134.377L197.608 134.257C197.608 134.257 197.631 134.062 197.613 133.859C197.484 132.41 196.816 130.876 195.823 129.748C195.528 129.413 194.522 128.538 194.377 128.49C194.291 128.461 194.245 128.505 194.142 128.712Z" fill="#1F1E2C"/>
<path fill-rule="evenodd" clip-rule="evenodd" d="M185.77 133.686C185.13 134.393 185.182 135.338 185.895 135.973C186.53 136.538 187.326 136.56 187.976 136.057L189.232 137.174C188.797 137.869 188.906 138.651 189.541 139.217C190.254 139.851 191.207 139.8 191.847 139.093C192.487 138.386 192.435 137.441 191.722 136.806C191.087 136.241 190.291 136.218 189.641 136.722L188.385 135.605C188.82 134.909 188.711 134.127 188.076 133.562C187.363 132.927 186.41 132.979 185.77 133.686ZM189.041 130.07C188.402 130.777 188.453 131.722 189.166 132.357C189.802 132.922 190.598 132.945 191.248 132.441L192.503 133.558C192.068 134.253 192.177 135.035 192.812 135.601C193.526 136.235 194.478 136.184 195.118 135.477C195.758 134.77 195.706 133.825 194.993 133.19C194.358 132.625 193.562 132.602 192.912 133.106L191.657 131.989C192.091 131.294 191.983 130.511 191.347 129.946C190.634 129.311 189.681 129.363 189.041 130.07ZM186.236 135.596C185.774 135.185 185.736 134.481 186.15 134.024C186.564 133.566 187.274 133.528 187.735 133.939C188.118 134.279 188.21 134.821 187.994 135.257L186.98 134.354C186.97 134.345 186.955 134.346 186.946 134.356V134.356C186.729 134.596 186.749 134.965 186.991 135.18L187.585 135.709C187.171 135.968 186.618 135.936 186.236 135.596ZM189.507 131.98C189.046 131.569 189.007 130.865 189.421 130.408C189.835 129.95 190.545 129.912 191.006 130.323C191.389 130.663 191.481 131.205 191.265 131.641L190.671 131.112C190.429 130.897 190.057 130.917 189.84 131.157V131.157C189.831 131.167 189.832 131.181 189.842 131.19L190.856 132.093C190.443 132.352 189.89 132.32 189.507 131.98ZM189.882 138.84C189.499 138.5 189.408 137.958 189.623 137.522L190.217 138.051C190.459 138.266 190.831 138.246 191.048 138.006V138.006C191.057 137.996 191.056 137.981 191.046 137.973L190.032 137.07C190.446 136.81 190.999 136.843 191.381 137.183C191.843 137.593 191.881 138.297 191.467 138.755C191.053 139.213 190.343 139.251 189.882 138.84ZM193.153 135.224C192.771 134.884 192.679 134.342 192.894 133.906L193.909 134.809C193.918 134.817 193.933 134.816 193.942 134.807V134.807C194.159 134.567 194.139 134.198 193.897 133.983L193.303 133.454C193.717 133.194 194.27 133.227 194.653 133.567C195.114 133.977 195.152 134.681 194.738 135.139C194.324 135.597 193.615 135.635 193.153 135.224Z" fill="#1F1E2C"/>
<path d="M190.111 154.592L189.163 153.74L190.067 152.733L191.015 153.584L191.438 153.113L189.302 151.197L188.88 151.667L189.671 152.378L188.767 153.385L187.976 152.675L187.553 153.146L189.688 155.063L190.111 154.592ZM192.442 149.35L191.734 150.139L191.319 149.766L192.496 148.454L192.09 148.09L190.494 149.87L192.629 151.786L194.294 149.932L193.891 149.571L192.647 150.958L192.136 150.5L192.844 149.712L192.442 149.35ZM197.355 146.521L195.22 144.604L194.829 145.039L195.375 146.787L195.369 146.793L193.57 146.442L193.168 146.89L195.303 148.807L195.711 148.353L194.472 147.24L194.486 147.224L196.021 147.521L196.139 147.39L195.678 145.896L195.693 145.88L196.932 146.992L197.355 146.521ZM198.231 141.696C197.943 141.768 197.442 141.997 197.042 142.442C196.681 142.844 196.41 143.469 196.927 143.932C197.47 144.42 198.015 143.917 198.464 143.476C198.778 143.179 199.021 143.001 199.227 143.186C199.426 143.365 199.337 143.675 199.094 143.946C198.706 144.378 198.217 144.488 197.912 144.539L197.995 145.092C198.42 145.025 198.974 144.849 199.47 144.296C199.94 143.773 200.127 143.15 199.601 142.677C199.012 142.149 198.42 142.716 198.045 143.082C197.772 143.339 197.507 143.609 197.317 143.438C197.134 143.274 197.226 143.014 197.417 142.801C197.734 142.448 198.108 142.3 198.318 142.258L198.231 141.696ZM199.323 140.848L200.019 140.073L201.749 141.626L202.169 141.158L200.439 139.606L201.131 138.834L200.726 138.47L198.918 140.484L199.323 140.848ZM203.64 136.875L202.932 137.663L202.517 137.29L203.694 135.979L203.288 135.615L201.692 137.394L203.827 139.311L205.492 137.456L205.089 137.095L203.845 138.482L203.334 138.024L204.042 137.236L203.64 136.875ZM206.921 135.864L206.136 135.159L206.706 134.525L207.878 134.798L208.359 134.261L207.05 133.99C207.171 133.625 207.111 133.264 206.836 133.018C206.666 132.865 206.453 132.793 206.236 132.798C205.969 132.806 205.701 132.927 205.428 133.231L204.366 134.415L206.501 136.332L206.921 135.864ZM205.839 133.57C205.915 133.485 206.01 133.399 206.159 133.397C206.252 133.392 206.341 133.424 206.413 133.489C206.577 133.636 206.574 133.875 206.427 134.039L205.74 134.804L205.181 134.302L205.839 133.57Z" fill="#1F1E2C"/>
</svg>
