<svg width="300" height="220" viewBox="0 0 300 220" fill="none" xmlns="http://www.w3.org/2000/svg">
<path d="M79.5455 142.821C81.6053 142.319 112.616 129.898 126.117 118.17L146.498 133.132C144.479 138.863 137.599 150.183 138.049 155.863C138.335 159.465 133.656 176.421 132.359 178.187C131.51 179.344 130.349 181.576 129.54 183.461C129.124 184.43 127.938 184.917 127.27 184.101C124.643 180.891 126.226 174.198 127.357 172.084C128.665 169.64 127.805 162.201 123.727 162.125C119.649 162.049 107.291 174.712 100.2 180.595C92.7368 186.787 86.3697 192.811 83.6838 190.839C80.9979 188.867 87.313 181.589 92.7103 176.556C98.1076 171.522 104.866 161.652 103.149 162.336C101.431 163.02 75.9238 179.55 72.7622 180.876C69.6005 182.202 68.5064 178.725 68.9603 177.113C69.3234 175.823 87.7412 160.913 97.4526 153.535L70.7542 162.679C69.3485 163.161 67.4304 163.178 67.0105 161.752C66.6545 160.544 67.4556 158.913 71.067 157.02C77.8311 153.476 90.0845 148.045 95.4952 144.318C89.2599 146.629 75.9046 150.165 74.2104 150.089C72.0925 149.993 71.0387 150.435 70.2286 147.895C69.3983 145.292 76.7466 143.503 79.5102 142.83L79.5455 142.821Z" fill="#B28B67"/>
<path d="M120.974 116.17C114.682 109.047 156.476 59.8368 185.984 19.6399L228.296 50.7012C207.414 81.536 155.415 140.351 152.175 142.581C148.125 145.368 127.265 123.293 120.974 116.17Z" fill="#FAD1B4"/>
<path d="M178.369 117.869C167.046 110.772 142.156 94.2027 133.183 84.6984C127.439 94.1786 116.224 113.63 117.31 115.595C118.668 118.05 150.043 146.188 153.647 145.916C156.53 145.698 171.33 127.127 178.369 117.869Z" fill="#1F1E2C"/>
<g clip-path="url(#clip0_75_2551)">
<rect width="105.21" height="15.439" transform="translate(125.032 124.617) rotate(-51.562)" fill="white"/>
<path fill-rule="evenodd" clip-rule="evenodd" d="M127.766 123.207C128.403 123.712 128.766 123.98 128.784 123.958C128.802 123.936 128.458 123.643 127.821 123.137C127.184 122.631 126.821 122.363 126.803 122.386C126.785 122.408 127.129 122.701 127.766 123.207ZM129.816 120.624C130.453 121.129 130.816 121.397 130.834 121.375C130.852 121.352 130.508 121.06 129.871 120.554C129.234 120.048 128.871 119.78 128.853 119.803C128.835 119.825 129.179 120.118 129.816 120.624ZM131.838 118.076C132.695 118.756 132.834 118.855 132.87 118.809C132.906 118.764 132.779 118.651 131.921 117.971C131.064 117.291 130.925 117.192 130.889 117.237C130.853 117.283 130.981 117.395 131.838 118.076ZM134.332 115.902L135.794 117.062L135.845 116.975L135.897 116.887L134.453 115.727L133.009 114.566L132.94 114.654L132.87 114.742L134.332 115.902ZM135.938 112.91C136.575 113.415 136.939 113.683 136.956 113.661C136.974 113.638 136.631 113.345 135.994 112.84C135.357 112.334 134.994 112.066 134.976 112.089C134.958 112.111 135.301 112.404 135.938 112.91ZM137.988 110.327C138.626 110.832 138.989 111.1 139.007 111.078C139.024 111.055 138.681 110.762 138.044 110.257C137.407 109.751 137.044 109.483 137.026 109.506C137.008 109.528 137.351 109.821 137.988 110.327ZM140.011 107.778C140.868 108.459 141.007 108.557 141.043 108.512C141.079 108.467 140.951 108.354 140.094 107.674C139.237 106.993 139.098 106.895 139.062 106.94C139.026 106.985 139.154 107.098 140.011 107.778ZM142.505 105.605L143.967 106.765L144.018 106.678L144.069 106.59L142.626 105.43L141.182 104.269L141.112 104.357L141.043 104.444L142.505 105.605ZM144.111 102.612C144.748 103.118 145.111 103.386 145.129 103.364C145.147 103.341 144.803 103.048 144.166 102.543C143.529 102.037 143.166 101.769 143.148 101.791C143.13 101.814 143.474 102.107 144.111 102.612ZM146.161 100.029C146.798 100.535 147.161 100.803 147.179 100.781C147.197 100.758 146.854 100.465 146.216 99.9596C145.579 99.4539 145.216 99.186 145.198 99.2084C145.181 99.2309 145.524 99.5238 146.161 100.029ZM148.183 97.4813C149.041 98.1616 149.179 98.2602 149.215 98.2149C149.251 98.1696 149.124 98.0569 148.267 97.3765C147.409 96.6962 147.271 96.5976 147.235 96.6429C147.199 96.6882 147.326 96.8009 148.183 97.4813ZM150.677 95.3074L152.139 96.4677L152.19 96.3803L152.242 96.293L150.798 95.1324L149.355 93.9718L149.285 94.0595L149.215 94.1471L150.677 95.3074ZM152.284 92.3152C152.921 92.8208 153.284 93.0888 153.302 93.0663C153.319 93.0439 152.976 92.751 152.339 92.2454C151.702 91.7398 151.339 91.4718 151.321 91.4943C151.303 91.5167 151.646 91.8096 152.284 92.3152ZM154.334 89.7322C154.971 90.2378 155.334 90.5057 155.352 90.4833C155.37 90.4609 155.026 90.168 154.389 89.6624C153.752 89.1567 153.389 88.8888 153.371 88.9112C153.353 88.9337 153.697 89.2265 154.334 89.7322ZM156.356 87.1841C156.993 87.6897 157.356 87.9576 157.374 87.9352C157.392 87.9127 157.048 87.6199 156.411 87.1142C155.774 86.6086 155.411 86.3407 155.393 86.3631C155.376 86.3856 155.719 86.6784 156.356 87.1841ZM158.85 85.0102L160.312 86.1705L160.363 86.0831L160.414 85.9958L158.971 84.8352L157.527 83.6746L157.458 83.7622L157.388 83.8499L158.85 85.0102ZM160.456 82.018C161.093 82.5236 161.456 82.7916 161.474 82.7691C161.492 82.7467 161.149 82.4538 160.512 81.9482C159.874 81.4426 159.511 81.1746 159.493 81.1971C159.476 81.2195 159.819 81.5124 160.456 82.018ZM162.506 79.435C163.143 79.9406 163.506 80.2085 163.524 80.1861C163.542 80.1636 163.199 79.8708 162.562 79.3652C161.925 78.8595 161.561 78.5916 161.544 78.614C161.526 78.6365 161.869 78.9293 162.506 79.435ZM164.531 76.8891C165.311 77.5075 165.529 77.6656 165.545 77.6223C165.56 77.5804 165.334 77.3799 164.594 76.7811C163.745 76.0941 163.617 76.0017 163.58 76.0479C163.544 76.0939 163.667 76.2032 164.531 76.8891ZM167.023 74.713L168.484 75.8732L168.536 75.7859L168.587 75.6985L167.143 74.538L165.7 73.3774L165.63 73.465L165.561 73.5527L167.023 74.713ZM168.629 71.7208C169.266 72.2264 169.629 72.4944 169.647 72.4719C169.665 72.4495 169.321 72.1566 168.684 71.651C168.047 71.1453 167.684 70.8774 167.666 70.8998C167.648 70.9223 167.992 71.2152 168.629 71.7208ZM170.679 69.1378C171.316 69.6434 171.679 69.9113 171.697 69.8889C171.715 69.8664 171.371 69.5736 170.734 69.0679C170.097 68.5623 169.734 68.2944 169.716 68.3168C169.698 68.3393 170.042 68.6321 170.679 69.1378ZM172.701 66.5896C173.558 67.2699 173.697 67.3686 173.733 67.3233C173.769 67.278 173.641 67.1652 172.784 66.4849C171.927 65.8046 171.788 65.7059 171.752 65.7512C171.716 65.7965 171.844 65.9093 172.701 66.5896ZM175.195 64.4158L176.657 65.576L176.708 65.4887L176.759 65.4013L175.316 64.2408L173.872 63.0802L173.803 63.1678L173.733 63.2555L175.195 64.4158ZM176.801 61.4236C177.438 61.9292 177.802 62.1971 177.819 62.1747C177.837 62.1523 177.494 61.8594 176.857 61.3538C176.22 60.8481 175.856 60.5802 175.839 60.6026C175.821 60.6251 176.164 60.9179 176.801 61.4236ZM178.824 58.8754C179.681 59.5558 179.82 59.6544 179.856 59.6091C179.892 59.5638 179.764 59.451 178.907 58.7707C178.05 58.0904 177.911 57.9917 177.875 58.037C177.839 58.0824 177.967 58.1951 178.824 58.8754ZM180.874 56.2924C181.511 56.798 181.874 57.066 181.892 57.0435C181.91 57.0211 181.566 56.7282 180.929 56.2226C180.292 55.717 179.929 55.449 179.911 55.4715C179.893 55.4939 180.237 55.7868 180.874 56.2924ZM183.365 54.1166C184.802 55.2566 184.826 55.2739 184.88 55.2052C184.935 55.1365 184.912 55.117 183.476 53.977C182.04 52.837 182.016 52.8197 181.961 52.8884C181.907 52.9571 181.929 52.9767 183.365 54.1166ZM187.655 50.3167C187.447 50.7296 187.356 50.9966 187.257 51.4836C187.01 52.7053 187.286 53.8993 188.052 54.9185C188.427 55.4162 189.082 55.9364 189.652 56.1878C191.115 56.8332 192.674 56.6607 194.009 55.7056C194.265 55.5222 194.373 55.4104 194.752 54.9327C195.237 54.3218 195.375 54.0553 195.565 53.3721C196.048 51.6285 195.284 49.6633 193.75 48.7014C192.87 48.1493 191.96 47.9427 190.942 48.064C190.176 48.1553 189.484 48.4331 188.854 48.9022C188.481 49.1806 187.857 49.916 187.655 50.3167ZM189.183 49.1399C190.275 48.3377 191.742 48.179 192.995 48.7276C194.504 49.3886 195.454 50.9683 195.312 52.5812C195.239 53.4084 194.983 54.0437 194.453 54.7104C193.332 56.1198 191.519 56.5758 189.854 55.8669C189.598 55.7576 189.431 55.6495 189.029 55.3301C188.471 54.8873 188.24 54.6152 187.966 54.0792C187.098 52.3806 187.612 50.2932 189.183 49.1399ZM144.257 108.532L144.814 108.974L144.927 108.906C144.989 108.87 145.086 108.8 145.143 108.751L145.246 108.662L145.05 108.691L144.853 108.72L144.477 108.421L144.1 108.122L144.389 108.114C144.875 108.101 145.395 108.012 145.635 107.899C145.902 107.773 146.143 107.5 146.188 107.269C146.246 106.976 145.86 106.501 145.477 106.393C145.342 106.355 145.303 106.368 145.168 106.494C145.083 106.574 145.014 106.649 145.016 106.662C145.017 106.674 145.103 106.654 145.207 106.616C145.52 106.502 145.79 106.59 145.949 106.857C146.042 107.014 145.992 107.271 145.83 107.475C145.564 107.809 145.039 107.986 144.22 108.018C143.957 108.028 143.733 108.048 143.721 108.063C143.71 108.078 143.951 108.289 144.257 108.532ZM160.902 87.3789C161.326 87.7153 161.367 87.757 161.322 87.8116C161.265 87.8818 161.052 88.0504 160.946 88.1101C160.881 88.1461 160.894 88.1687 161.05 88.2921C161.147 88.3696 161.232 88.4269 161.238 88.4195C161.244 88.4121 161.261 88.3425 161.276 88.2648C161.291 88.1872 161.349 88.0657 161.405 87.9948C161.5 87.8749 161.516 87.8714 161.629 87.9446C161.696 87.9879 161.763 88.0076 161.778 87.9884C161.793 87.9692 161.759 87.9082 161.701 87.853L161.597 87.7524L161.873 87.4055C162.129 87.082 162.143 87.055 162.078 87.0035C162.013 86.952 161.99 86.9716 161.732 87.2974L161.455 87.6465L161.052 87.327C160.831 87.1513 160.664 86.9999 160.682 86.9906C160.7 86.9812 161.141 86.8618 161.662 86.7251C162.183 86.5885 162.619 86.4653 162.63 86.4512C162.641 86.4372 162.605 86.3978 162.549 86.3636C162.464 86.3113 162.291 86.3536 161.463 86.6289C160.921 86.809 160.468 86.9676 160.455 86.9814C160.443 86.9952 160.644 87.1741 160.902 87.3789ZM152.178 97.6325C152.07 97.8355 152.077 97.8715 152.271 98.1081C152.448 98.3246 152.698 98.4708 152.921 98.4894C153.138 98.5073 153.462 98.3589 153.609 98.1745C153.769 97.9724 153.826 97.6375 153.734 97.4363C153.693 97.3459 153.584 97.21 153.493 97.1344L153.327 96.9968L153.95 96.9441C154.292 96.9151 154.582 96.8794 154.593 96.8647C154.604 96.8499 154.396 96.6655 154.13 96.4547C153.638 96.0639 153.598 96.0468 153.493 96.1794C153.479 96.1964 153.636 96.3507 153.841 96.5223L154.214 96.8343L153.591 96.8803C153.248 96.9056 152.966 96.944 152.963 96.9657C152.96 96.9874 153.011 97.0082 153.075 97.0119C153.231 97.021 153.517 97.2529 153.582 97.4233C153.642 97.5807 153.614 97.7283 153.481 97.9529C153.282 98.2883 152.933 98.4321 152.657 98.2924C152.378 98.1512 152.303 97.9974 152.321 97.6078C152.331 97.4024 152.299 97.408 152.178 97.6325ZM168.506 77.0481C168.415 77.2216 168.424 77.2773 168.58 77.4914C168.716 77.6782 169.007 77.8607 169.217 77.8904C169.81 77.9741 170.344 77.2574 170.066 76.7516C169.976 76.588 169.642 76.311 169.504 76.2864C169.391 76.266 169.391 76.2661 169.72 75.9719L169.956 75.7609L170.361 76.0665C170.761 76.3679 170.834 76.3964 170.923 76.2867C170.949 76.2543 170.846 76.1545 170.512 75.8891L170.065 75.5348L169.655 75.9061C169.429 76.1104 169.245 76.2878 169.246 76.3005C169.247 76.3131 169.322 76.3405 169.413 76.3613C169.746 76.438 169.986 76.7313 169.952 77.0186C169.936 77.1542 169.886 77.2552 169.754 77.4219C169.537 77.6946 169.337 77.7865 169.08 77.7311C168.757 77.6618 168.641 77.4458 168.659 76.9492C168.666 76.7758 168.638 76.7934 168.506 77.0481ZM176.914 66.4836C176.85 66.681 176.863 66.9621 176.944 67.1458C177.081 67.4554 177.518 67.6223 177.881 67.5032C178.062 67.4437 178.12 67.3986 178.292 67.1809C178.516 66.8989 178.547 66.7549 178.452 66.4457C178.383 66.2236 178.114 66.0033 177.876 65.9743C177.784 65.9631 177.72 65.9398 177.733 65.9226C177.747 65.9055 177.904 65.8445 178.082 65.7873C178.306 65.7149 178.508 65.6912 178.743 65.7097C179.136 65.7405 179.09 65.6558 178.68 65.5947C178.096 65.5074 177.534 65.6914 177.172 66.0884C177.04 66.2338 176.952 66.3685 176.914 66.4836ZM137.045 116.974L137.155 117.061L136.578 117.764C136.077 118.375 135.987 118.47 135.888 118.486C135.825 118.497 135.765 118.516 135.755 118.529C135.745 118.542 135.83 118.627 135.945 118.718C136.059 118.809 136.162 118.873 136.172 118.86C136.182 118.847 136.187 118.784 136.183 118.721C136.177 118.618 136.254 118.504 136.871 117.707L137.567 116.81L137.284 116.83C136.93 116.855 136.91 116.867 137.045 116.974ZM188.563 52.1632C188.449 52.4253 188.438 52.5931 188.52 52.8457C188.58 53.0297 188.622 53.083 188.857 53.2696C189.099 53.4617 189.149 53.4844 189.36 53.4978C189.516 53.5077 189.67 53.4751 189.825 53.3999L190.056 53.2873L190.421 53.5769L190.785 53.8664L190.728 54.117C190.69 54.2842 190.693 54.4422 190.738 54.5919C190.799 54.7946 190.832 54.8372 191.078 55.0322C191.325 55.2282 191.372 55.2493 191.585 55.2614C191.918 55.2803 192.18 55.1602 192.395 54.8892C192.759 54.4312 192.7 53.8999 192.247 53.5434C191.922 53.2879 191.516 53.2577 191.182 53.4646L191.041 53.5518L190.672 53.2595L190.304 52.9672L190.357 52.8101C190.483 52.4379 190.361 52.0486 190.038 51.7903C189.522 51.3769 188.831 51.5516 188.563 52.1632ZM190.353 49.8766C190.126 50.3144 190.234 50.7505 190.649 51.0771C190.946 51.3113 191.364 51.3345 191.687 51.1347L191.828 51.0474L192.196 51.3397L192.564 51.632L192.511 51.7891C192.35 52.2675 192.601 52.7611 193.117 52.9783C193.911 53.313 194.757 52.2478 194.25 51.5503C193.933 51.113 193.419 50.9732 192.998 51.2095L192.81 51.3149L192.444 51.0241L192.077 50.7333L192.13 50.5762C192.291 50.0977 192.04 49.6042 191.525 49.3869C191.114 49.2137 190.58 49.4367 190.353 49.8766ZM177.655 66.0646C177.941 66.0311 178.279 66.287 178.295 66.5497C178.33 67.1123 177.598 67.6317 177.208 67.3217C176.933 67.1038 176.965 66.7528 177.296 66.3327C177.471 66.1104 177.51 66.0817 177.655 66.0646ZM189.149 51.9759C189.565 51.7874 189.974 51.9958 190.053 52.4355C190.112 52.7611 190.058 52.7716 189.717 52.5011C189.45 52.2896 189.416 52.2731 189.369 52.3326C189.34 52.3688 189.317 52.4579 189.318 52.5304C189.319 52.6383 189.359 52.6985 189.537 52.8601C189.658 52.9688 189.746 53.0705 189.734 53.086C189.674 53.1611 189.347 53.1784 189.198 53.1143C188.908 52.9897 188.768 52.7178 188.824 52.3895C188.846 52.2585 189.023 52.0332 189.149 51.9759ZM190.953 49.7292C191.361 49.5448 191.82 49.8233 191.832 50.2621C191.834 50.3584 191.826 50.4498 191.814 50.4652C191.802 50.4807 191.683 50.4177 191.549 50.3252C191.351 50.1877 191.284 50.1623 191.178 50.186C191.108 50.2019 191.026 50.2446 190.997 50.2809C190.95 50.3404 190.974 50.3698 191.24 50.5813C191.403 50.7102 191.524 50.8302 191.51 50.8479C191.454 50.9192 191.132 50.9471 190.986 50.8934C190.471 50.7052 190.45 49.9565 190.953 49.7292ZM136.44 119.101C136.537 119.164 136.576 119.167 136.606 119.113C136.627 119.074 136.893 118.828 137.198 118.566C137.502 118.304 137.75 118.076 137.748 118.06C137.746 118.043 137.689 118.009 137.621 117.984C137.505 117.943 137.488 117.951 137.37 118.118C137.261 118.27 136.701 118.757 136.404 118.958C136.32 119.014 136.323 119.025 136.44 119.101ZM137.956 117.659C137.964 117.729 138.075 117.796 138.157 117.778C138.316 117.745 138.288 117.492 138.125 117.496C138.042 117.498 137.948 117.588 137.956 117.659ZM136.923 119.494L137.039 119.586L137.19 119.405C137.427 119.12 138.162 118.797 138.447 118.853C138.622 118.887 138.625 118.889 138.605 118.998C138.593 119.063 138.438 119.212 138.062 119.52C137.556 119.935 137.537 119.954 137.593 120.016C137.624 120.052 137.699 120.103 137.76 120.13C137.856 120.174 137.866 120.17 137.836 120.098C137.793 119.991 137.83 119.949 138.297 119.572C138.757 119.201 138.833 119.115 138.818 118.982C138.792 118.753 138.463 118.68 138.043 118.81C137.759 118.898 137.76 118.893 138.056 118.659C138.174 118.565 138.269 118.477 138.268 118.463C138.266 118.449 138.202 118.412 138.124 118.381C138.035 118.346 137.974 118.348 137.958 118.386C137.905 118.517 137.72 118.702 137.344 119.003C137.128 119.176 136.919 119.337 136.879 119.36C136.818 119.394 136.826 119.417 136.923 119.494ZM145.134 109.217C145.229 109.279 145.27 109.283 145.298 109.232C145.319 109.195 145.585 108.95 145.89 108.687C146.196 108.425 146.444 108.195 146.442 108.178C146.44 108.16 146.382 108.126 146.314 108.101C146.2 108.06 146.182 108.069 146.079 108.219C145.979 108.364 145.276 108.981 145.083 109.092C145.017 109.13 145.024 109.146 145.134 109.217ZM153.35 98.9646L153.471 99.0611L153.605 98.8965C153.678 98.806 153.953 98.5509 154.216 98.3297C154.48 98.1084 154.684 97.9186 154.671 97.9078C154.657 97.897 154.584 97.8668 154.509 97.8408C154.385 97.7977 154.369 97.8042 154.331 97.9137C154.3 98.0016 154.174 98.1304 153.863 98.3927C153.628 98.59 153.397 98.7688 153.348 98.79C153.217 98.8471 153.217 98.8592 153.35 98.9646ZM169.695 78.3704C169.812 78.4627 169.829 78.4637 169.866 78.3804C169.888 78.3293 170.152 78.0772 170.453 77.82C170.753 77.5628 170.997 77.3365 170.995 77.317C170.993 77.2976 170.935 77.2615 170.867 77.2369C170.749 77.1944 170.736 77.202 170.602 77.3883C170.476 77.564 169.835 78.1231 169.641 78.2276C169.577 78.2617 169.585 78.283 169.695 78.3704ZM161.559 88.6964C161.672 88.7858 161.684 88.7846 161.771 88.6748C161.822 88.6106 162.096 88.3625 162.379 88.1235C162.662 87.8845 162.892 87.6767 162.891 87.6618C162.889 87.6468 162.819 87.6096 162.736 87.579C162.592 87.5263 162.581 87.5301 162.543 87.6511C162.511 87.7506 162.414 87.8532 162.107 88.1139C161.89 88.2982 161.651 88.4832 161.576 88.5251L161.439 88.6012L161.559 88.6964ZM178.021 68.0241C178.14 68.1182 178.144 68.1173 178.262 67.9732C178.327 67.8924 178.6 67.6414 178.867 67.4153C179.134 67.1892 179.352 66.9976 179.352 66.9896C179.352 66.9762 179.071 66.8675 179.036 66.867C179.027 66.8668 179.003 66.9203 178.982 66.9858C178.954 67.0749 178.841 67.1918 178.536 67.4502C178.311 67.6401 178.076 67.8253 178.014 67.8618C177.903 67.9265 177.903 67.9307 178.021 68.0241ZM146.683 107.771C146.694 107.87 146.755 107.915 146.851 107.895C147.01 107.861 146.982 107.608 146.819 107.612C146.721 107.615 146.672 107.673 146.683 107.771ZM154.895 97.5143C154.922 97.6453 155.046 97.6834 155.125 97.5847C155.176 97.5198 155.175 97.4783 155.12 97.4203C155.011 97.3052 154.864 97.3665 154.895 97.5143ZM171.223 76.9004C171.213 76.9927 171.334 77.0532 171.447 77.0119C171.568 76.9672 171.527 76.7853 171.389 76.7607C171.29 76.7428 171.235 76.7885 171.223 76.9004ZM163.118 87.2944C163.18 87.4007 163.294 87.4112 163.35 87.3158C163.387 87.2516 163.378 87.2099 163.314 87.1593C163.25 87.1088 163.207 87.109 163.154 87.1602C163.109 87.2021 163.095 87.2558 163.118 87.2944ZM179.556 66.5899C179.57 66.7173 179.732 66.7584 179.814 66.6554C179.88 66.5721 179.822 66.4551 179.709 66.443C179.59 66.4304 179.543 66.4759 179.556 66.5899ZM145.622 109.615L145.736 109.706L145.89 109.521C146.13 109.233 146.854 108.914 147.141 108.969C147.317 109.003 147.319 109.006 147.298 109.119C147.285 109.19 147.143 109.326 146.747 109.649L146.214 110.084L146.321 110.169C146.459 110.277 146.586 110.298 146.53 110.203C146.479 110.117 146.529 110.061 146.991 109.688C147.451 109.317 147.526 109.232 147.512 109.099C147.486 108.87 147.157 108.797 146.737 108.927C146.469 109.01 146.461 109 146.662 108.847C147.024 108.572 147.029 108.557 146.77 108.476C146.668 108.443 146.651 108.453 146.611 108.566C146.578 108.662 146.47 108.772 146.159 109.027C145.935 109.211 145.702 109.391 145.642 109.428C145.492 109.517 145.493 109.512 145.622 109.615ZM153.832 99.3469L153.948 99.4397L154.145 99.2292C154.357 99.0013 154.771 98.7963 155.165 98.724C155.38 98.6846 155.551 98.7677 155.512 98.892C155.5 98.931 155.264 99.1468 154.988 99.3717C154.711 99.5965 154.476 99.7924 154.465 99.8069C154.44 99.8389 154.584 99.9578 154.686 99.9896C154.752 100.01 154.757 100.004 154.734 99.9233C154.712 99.8405 154.74 99.8104 155.124 99.5017C155.6 99.1195 155.734 98.9673 155.719 98.8291C155.692 98.5958 155.341 98.5409 154.877 98.6976C154.753 98.7397 154.684 98.749 154.724 98.7184C154.992 98.5141 155.174 98.3537 155.171 98.3244C155.169 98.3057 155.098 98.2653 155.015 98.2347C154.87 98.1819 154.861 98.1856 154.821 98.308C154.789 98.4095 154.699 98.5037 154.398 98.7518C154.188 98.925 153.953 99.1029 153.876 99.1473C153.694 99.2516 153.697 99.2399 153.832 99.3469ZM170.174 78.7507L170.296 78.8475L170.44 78.6701C170.709 78.3354 171.594 78 171.792 78.1573C171.84 78.195 171.86 78.254 171.842 78.3012C171.826 78.3452 171.599 78.5523 171.339 78.7614C171.079 78.9706 170.849 79.1636 170.828 79.1903C170.803 79.2221 170.83 79.2707 170.905 79.3309C171.048 79.4443 171.11 79.4416 171.078 79.3231C171.055 79.2391 171.083 79.2091 171.491 78.8759C171.996 78.4631 172.079 78.3697 172.064 78.2347C172.038 78.0086 171.745 77.9415 171.316 78.0636C171.006 78.1518 171.005 78.1534 171.379 77.866C171.456 77.8068 171.518 77.7442 171.516 77.7271C171.514 77.7099 171.444 77.6709 171.36 77.6404C171.215 77.5871 171.206 77.5905 171.153 77.7231C171.109 77.8311 170.999 77.9396 170.65 78.2175C170.403 78.4132 170.168 78.5915 170.127 78.6136C170.064 78.6476 170.071 78.6689 170.174 78.7507ZM162.052 89.0877C162.153 89.1678 162.16 89.1651 162.346 88.9746C162.69 88.6236 163.482 88.3451 163.683 88.5047C163.762 88.5673 163.763 88.592 163.69 88.6841C163.621 88.7711 163.226 89.1067 162.731 89.4987C162.658 89.5568 162.663 89.5727 162.788 89.6719C162.864 89.732 162.948 89.7731 162.975 89.7632C163.002 89.7534 163 89.726 162.97 89.7024C162.892 89.6407 162.998 89.5226 163.497 89.1137C163.905 88.7801 163.929 88.7538 163.941 88.6263C163.969 88.3172 163.577 88.2593 162.964 88.4822C162.912 88.5008 162.994 88.4179 163.148 88.2937C163.446 88.0551 163.45 88.0367 163.223 87.9649C163.123 87.9335 163.101 87.9468 163.009 88.0939C162.921 88.2337 162.417 88.6736 162.034 88.9453C161.959 88.9984 161.961 89.0156 162.052 89.0877ZM178.508 68.4109L178.628 68.506L178.764 68.3356C179.015 68.0185 179.94 67.6697 180.13 67.8202C180.171 67.853 180.195 67.9116 180.183 67.9504C180.17 67.9892 179.923 68.2163 179.632 68.4551C179.342 68.694 179.106 68.8988 179.108 68.9102C179.11 68.9216 179.178 68.9707 179.258 69.0193C179.395 69.1028 179.402 69.1017 179.396 68.9992C179.39 68.8984 179.418 68.8673 179.799 68.5594C180.293 68.1594 180.402 68.031 180.377 67.8774C180.341 67.6565 179.952 67.6096 179.494 67.7711C179.399 67.8048 179.347 67.8145 179.38 67.7926C179.506 67.7081 179.844 67.413 179.842 67.3899C179.84 67.3766 179.77 67.3386 179.685 67.3056C179.539 67.2486 179.529 67.2521 179.49 67.3706C179.459 67.4672 179.36 67.5718 179.054 67.8281C178.837 68.0109 178.598 68.1954 178.524 68.2381L178.389 68.3158L178.508 68.4109ZM191.319 54.2741C191.517 54.4115 191.585 54.437 191.69 54.4133C191.761 54.3974 191.842 54.3546 191.871 54.3183C191.918 54.2589 191.894 54.2294 191.628 54.018C191.466 53.889 191.344 53.7691 191.358 53.7513C191.415 53.6802 191.736 53.6521 191.882 53.7054C192.28 53.851 192.414 54.3485 192.146 54.6859C191.884 55.0161 191.401 55.0049 191.149 54.6628C191.052 54.5322 190.995 54.2092 191.054 54.134C191.067 54.1185 191.186 54.1815 191.319 54.2741ZM193.152 52.0982C193.418 52.3096 193.452 52.3261 193.499 52.2667C193.528 52.2304 193.551 52.1413 193.551 52.0688C193.55 51.9609 193.51 51.9007 193.331 51.7391C193.211 51.6304 193.122 51.5288 193.134 51.5133C193.188 51.4457 193.513 51.4195 193.655 51.4714C194.052 51.6169 194.187 52.1144 193.919 52.4513C193.652 52.7882 193.137 52.7703 192.905 52.4161C192.82 52.2863 192.774 51.9671 192.831 51.896C192.845 51.8782 192.989 51.9692 193.152 52.0982ZM139.255 122.699C139.238 122.778 139.252 122.814 139.307 122.825C139.349 122.834 139.74 123.124 140.174 123.469L140.965 124.096L141.062 123.974L141.159 123.851L140.863 123.636L140.567 123.421L141.022 123.436C141.469 123.451 141.479 123.449 141.594 123.302C141.684 123.186 141.692 123.159 141.63 123.184C141.585 123.201 141.339 123.207 141.084 123.196L140.62 123.176L140.566 122.887C140.535 122.728 140.524 122.563 140.54 122.521C140.591 122.385 140.507 122.389 140.397 122.528C140.302 122.648 140.3 122.668 140.378 122.712C140.441 122.748 140.481 122.856 140.517 123.086L140.568 123.411L139.97 122.937C139.318 122.419 139.319 122.42 139.255 122.699ZM136.828 125.848C136.837 125.855 136.901 125.855 136.97 125.847C137.086 125.833 137.141 125.869 137.766 126.365C138.302 126.79 138.442 126.918 138.464 127.002C138.506 127.166 138.531 127.163 138.681 126.974L138.822 126.797L138.654 126.788C138.5 126.781 138.436 126.741 137.861 126.306C137.136 125.757 137.087 125.78 138.331 126.085C138.771 126.193 139.143 126.266 139.157 126.247C139.172 126.228 139.018 125.896 138.816 125.508C138.241 124.406 138.226 124.455 138.959 125.053C139.309 125.339 139.612 125.607 139.633 125.649C139.667 125.718 139.687 125.706 139.815 125.545C139.943 125.384 139.95 125.361 139.876 125.344C139.83 125.333 139.484 125.089 139.108 124.801C138.462 124.306 138.421 124.268 138.384 124.128C138.362 124.046 138.335 123.971 138.323 123.962C138.312 123.953 138.25 124.022 138.187 124.114L138.07 124.282L138.493 125.091C138.726 125.535 138.918 125.912 138.92 125.928C138.922 125.944 138.508 125.853 138.002 125.726L137.08 125.494L136.945 125.664C136.871 125.757 136.818 125.84 136.828 125.848ZM142.428 118.8C142.442 118.811 142.505 118.816 142.569 118.812C142.671 118.805 142.765 118.868 143.35 119.332C143.942 119.802 144.02 119.876 144.059 120.001L144.103 120.142L144.245 119.964C144.323 119.866 144.378 119.779 144.368 119.77C144.357 119.762 144.281 119.753 144.198 119.751C144.058 119.746 144.003 119.71 143.47 119.272L142.893 118.799L143.805 119.029C144.306 119.156 144.731 119.25 144.749 119.238C144.766 119.226 144.586 118.844 144.348 118.389L143.914 117.561L144.148 117.73C144.513 117.992 145.16 118.547 145.202 118.633C145.235 118.702 145.256 118.689 145.396 118.514C145.55 118.319 145.55 118.317 145.438 118.3C145.356 118.287 145.138 118.134 144.663 117.757C144.091 117.303 143.995 117.214 143.957 117.097C143.932 117.023 143.904 116.956 143.894 116.948C143.855 116.917 143.661 117.207 143.676 117.273C143.684 117.311 143.85 117.641 144.043 118.005C144.237 118.37 144.422 118.727 144.454 118.799L144.514 118.93L143.599 118.699L142.684 118.469L142.544 118.624C142.466 118.71 142.414 118.789 142.428 118.8ZM141.337 120.382C141.363 120.506 141.508 120.522 141.597 120.41C141.652 120.34 141.646 120.312 141.559 120.244C141.48 120.181 141.438 120.176 141.386 120.225C141.349 120.261 141.327 120.332 141.337 120.382ZM144.162 116.817C144.189 116.948 144.313 116.985 144.407 116.891C144.47 116.828 144.478 116.786 144.437 116.725C144.337 116.576 144.127 116.646 144.162 116.817ZM142.147 120.17C142.158 120.351 142.179 120.42 142.211 120.382C142.253 120.332 142.319 120.37 142.734 120.683C143.141 120.99 143.226 121.04 143.334 121.032C143.474 121.023 143.599 120.892 143.645 120.707C143.687 120.542 143.633 120.515 143.557 120.663C143.445 120.881 143.376 120.861 142.877 120.465L142.43 120.11L142.554 119.953C142.623 119.866 142.663 119.783 142.644 119.768C142.625 119.753 142.554 119.81 142.487 119.895C142.369 120.043 142.358 120.047 142.247 119.975L142.13 119.9L142.147 120.17ZM139.214 124.02C139.186 124.093 139.172 124.211 139.185 124.281C139.207 124.407 139.208 124.407 139.236 124.317C139.291 124.137 139.461 123.901 139.548 123.882C139.602 123.871 139.694 123.912 139.799 123.996L139.964 124.127L139.885 124.305C139.684 124.755 139.798 125.14 140.117 125.091C140.284 125.065 140.439 124.875 140.465 124.662C140.485 124.506 140.488 124.503 140.584 124.514C140.74 124.531 140.866 124.32 140.797 124.159C140.763 124.081 140.753 124.085 140.697 124.195L140.634 124.317L140.199 123.972C139.836 123.683 139.744 123.627 139.64 123.628C139.496 123.63 139.295 123.815 139.214 124.02ZM140.882 121.897C140.7 122.461 141.292 123.075 141.846 122.895C142.143 122.799 142.341 122.449 142.257 122.167C142.205 121.989 142.172 121.992 142.149 122.177C142.124 122.376 141.995 122.553 141.817 122.634C141.686 122.693 141.535 122.666 141.307 122.541L141.179 122.471L141.483 122.088L141.787 121.705L141.687 121.626C141.451 121.438 140.979 121.597 140.882 121.897ZM141.853 120.744C141.805 120.91 141.807 120.916 141.929 120.926C142.029 120.935 142.137 121.008 142.479 121.295L142.904 121.653L143.011 121.518C143.097 121.41 143.104 121.379 143.046 121.361C143.007 121.349 142.741 121.153 142.456 120.927C142.171 120.701 141.93 120.529 141.92 120.545C141.911 120.56 141.88 120.65 141.853 120.744ZM144.682 117.173C144.623 117.384 144.621 117.379 144.78 117.393C144.896 117.403 144.981 117.46 145.322 117.751L145.727 118.096L145.834 117.961C145.907 117.869 145.922 117.824 145.882 117.82C145.849 117.816 145.576 117.633 145.275 117.412L144.728 117.012L144.682 117.173ZM145.076 116.683C145.041 116.805 145.049 116.841 145.114 116.855C145.16 116.865 145.404 117.037 145.657 117.238L146.118 117.604L146.215 117.482L146.312 117.359L145.853 116.995L145.394 116.631L145.448 116.463C145.515 116.25 145.64 116.153 145.796 116.191C145.941 116.227 146.452 116.624 146.575 116.796L146.662 116.918L146.784 116.764C146.904 116.614 146.904 116.61 146.79 116.574C146.726 116.554 146.504 116.402 146.296 116.237C145.946 115.96 145.905 115.938 145.753 115.944C145.537 115.953 145.343 116.18 145.333 116.433C145.326 116.642 145.322 116.647 145.211 116.582C145.125 116.53 145.119 116.534 145.076 116.683ZM146.201 115.284C146.085 115.85 146.743 116.399 147.241 116.153C147.493 116.029 147.627 115.779 147.585 115.513C147.543 115.244 147.474 115.181 147.48 115.418C147.485 115.629 147.321 115.869 147.131 115.926C146.993 115.967 146.743 115.909 146.612 115.806L146.524 115.736L146.816 115.368C147.144 114.955 147.148 114.917 146.877 114.841C146.564 114.753 146.271 114.946 146.201 115.284ZM141.218 121.708C141.287 121.7 141.389 121.73 141.447 121.776L141.551 121.859L141.34 122.125L141.13 122.39L141.052 122.292C140.952 122.165 140.938 121.917 141.025 121.808C141.062 121.761 141.149 121.716 141.218 121.708ZM146.543 114.989C146.605 114.985 146.703 115.014 146.761 115.054L146.867 115.126L146.662 115.404C146.55 115.558 146.448 115.675 146.435 115.665C146.423 115.656 146.381 115.583 146.342 115.503C146.228 115.27 146.333 115.003 146.543 114.989ZM155.846 103.773C155.82 103.981 155.878 104.116 156.054 104.255C156.169 104.346 156.229 104.359 156.408 104.33C156.586 104.301 156.645 104.268 156.75 104.136C156.82 104.049 156.889 103.912 156.905 103.832C156.931 103.701 156.917 103.674 156.761 103.549L156.588 103.412L156.436 103.604C156.302 103.773 156.292 103.803 156.353 103.851C156.409 103.896 156.441 103.883 156.521 103.782C156.608 103.673 156.629 103.666 156.69 103.731C156.749 103.793 156.741 103.829 156.64 103.975C156.544 104.114 156.496 104.148 156.386 104.157C155.988 104.189 155.893 103.583 156.278 103.476C156.351 103.456 156.381 103.426 156.38 103.375C156.377 103.257 156.323 103.246 156.167 103.332C155.969 103.443 155.871 103.576 155.846 103.773ZM157.029 102.929C157.149 103.17 157.263 103.379 157.282 103.394C157.364 103.459 157.417 103.283 157.351 103.165C157.287 103.049 157.293 103.024 157.416 102.869C157.537 102.716 157.565 102.702 157.698 102.728C157.79 102.746 157.866 102.73 157.902 102.684C157.969 102.6 157.989 102.609 157.364 102.453C156.767 102.304 156.737 102.346 157.029 102.929ZM157.877 101.932C158.236 102.217 158.262 102.231 158.314 102.165C158.361 102.107 158.347 102.077 158.231 101.985C158.095 101.878 158.094 101.872 158.188 101.754C158.271 101.649 158.311 101.637 158.486 101.663C158.627 101.684 158.707 101.67 158.75 101.615C158.828 101.519 158.821 101.513 158.582 101.478L158.389 101.449L158.353 101.296C158.308 101.107 158.27 101.076 158.083 101.075C157.944 101.075 157.918 101.094 157.714 101.352L157.494 101.628L157.877 101.932ZM158.761 100.813C159.122 101.1 159.149 101.114 159.201 101.048C159.251 100.985 159.233 100.96 159.023 100.791L158.789 100.604L159.06 100.637C159.209 100.655 159.338 100.661 159.346 100.651C159.354 100.641 159.318 100.518 159.267 100.376L159.173 100.12L159.411 100.307C159.638 100.485 159.651 100.489 159.7 100.406C159.749 100.323 159.736 100.306 159.386 100.012L159.02 99.706L158.952 99.7919C158.898 99.8594 158.906 99.9337 158.988 100.139C159.045 100.283 159.083 100.411 159.072 100.424C159.062 100.437 158.933 100.43 158.787 100.409C158.613 100.384 158.496 100.394 158.448 100.439C158.378 100.506 158.384 100.513 158.761 100.813ZM159.761 99.558L160.143 99.8614L160.406 99.5298C160.651 99.2215 160.664 99.1943 160.6 99.143C160.536 99.0928 160.512 99.1111 160.322 99.3497L160.115 99.6115L160.01 99.5287C159.912 99.4506 159.912 99.4382 160.017 99.3063C160.109 99.19 160.116 99.1575 160.058 99.1116C160 99.0656 159.97 99.0797 159.878 99.196C159.786 99.3124 159.756 99.3265 159.698 99.2805C159.635 99.2306 159.647 99.202 159.822 98.981C159.997 98.7599 160.009 98.7314 159.946 98.6815C159.882 98.6304 159.858 98.6496 159.628 98.9405L159.378 99.2546L159.761 99.558ZM160.592 98.5108C160.948 98.7936 160.978 98.8096 161.028 98.7459C161.076 98.6855 161.055 98.6539 160.841 98.4695L160.6 98.2614L161.012 98.2546C161.258 98.2505 161.444 98.2213 161.476 98.182C161.524 98.1214 161.497 98.0916 161.146 97.8127L160.763 97.5093L160.695 97.595C160.631 97.676 160.639 97.6908 160.844 97.8692L161.06 98.0578L160.689 98.0649C160.464 98.0692 160.296 98.0989 160.263 98.1397C160.213 98.2026 160.237 98.229 160.592 98.5108ZM161.106 97.2021C161.158 97.2289 161.211 97.201 161.305 97.0992L161.433 96.9596L161.744 97.2062C162.031 97.4345 162.058 97.4477 162.11 97.3831C162.161 97.3185 162.142 97.2949 161.854 97.0666L161.544 96.82L161.65 96.6635C161.728 96.5493 161.743 96.4907 161.706 96.4471C161.659 96.393 161.624 96.4246 161.345 96.7763C161.066 97.128 161.043 97.1689 161.106 97.2021ZM162.697 95.858C163.056 96.143 163.083 96.1572 163.135 96.0916C163.187 96.026 163.167 96.0034 162.808 95.7184C162.449 95.4334 162.422 95.4192 162.37 95.4848C162.318 95.5504 162.338 95.573 162.697 95.858ZM163.196 95.2297L163.578 95.5331L163.74 95.3288C164.045 94.9453 164.045 94.709 163.742 94.4683C163.63 94.3793 163.559 94.3592 163.416 94.3759C163.246 94.3958 163.219 94.4161 163.023 94.6618L162.814 94.9263L163.196 95.2297ZM158.135 101.294C158.225 101.347 158.198 101.453 158.042 101.651C157.961 101.754 157.943 101.757 157.847 101.68L157.741 101.596L157.897 101.421C158.029 101.272 158.065 101.253 158.135 101.294ZM163.458 94.5589C163.749 94.5757 163.86 94.8926 163.662 95.1419L163.55 95.2831L163.307 95.0901L163.063 94.897L163.2 94.7245C163.31 94.5857 163.361 94.5533 163.458 94.5589ZM163.936 93.9758C163.958 94.0128 164.004 94.0396 164.039 94.0354C164.141 94.0235 164.189 93.8846 164.113 93.8238C164.024 93.7537 163.879 93.8788 163.936 93.9758ZM157.33 102.638C157.345 102.649 157.32 102.705 157.274 102.763L157.19 102.869L157.125 102.723L157.06 102.578L157.182 102.598C157.248 102.609 157.315 102.627 157.33 102.638ZM140.233 124.34C140.404 124.476 140.419 124.501 140.378 124.59C140.353 124.645 140.292 124.731 140.242 124.781C140.169 124.854 140.13 124.859 140.044 124.806C139.918 124.728 139.886 124.612 139.938 124.419C140.001 124.182 140.025 124.175 140.233 124.34ZM147.744 115.08C147.738 115.225 147.937 115.311 148.024 115.201C148.148 115.045 148.03 114.839 147.859 114.914C147.746 114.962 147.749 114.958 147.744 115.08ZM164.353 94.3068C164.375 94.3437 164.421 94.3705 164.456 94.3664C164.558 94.3544 164.606 94.2156 164.53 94.1548C164.441 94.0846 164.296 94.2097 164.353 94.3068ZM165.334 93.5702C165.38 93.6068 165.976 92.8688 170.525 87.1365C175.075 81.4042 175.658 80.6567 175.612 80.6201C175.566 80.5835 174.971 81.3215 170.421 87.0538C165.872 92.7861 165.288 93.5335 165.334 93.5702Z" fill="black"/>
</g>
<defs>
<clipPath id="clip0_75_2551">
<rect width="105.21" height="15.439" fill="white" transform="translate(125.032 124.617) rotate(-51.562)"/>
</clipPath>
</defs>
</svg>
